<svg width="55" height="55" viewBox="0 0 55 55" fill="none" xmlns="http://www.w3.org/2000/svg">
<path d="M25.39 21L31 27L25.39 33L24 31.5134L28.2201 27L24 22.4866L25.39 21Z" fill="black"/>
<path fill-rule="evenodd" clip-rule="evenodd" d="M27.5 54C42.1355 54 54 42.1355 54 27.5C54 12.8645 42.1355 1 27.5 1C12.8645 1 1 12.8645 1 27.5C1 42.1355 12.8645 54 27.5 54ZM27.5 55C42.6878 55 55 42.6878 55 27.5C55 12.3122 42.6878 0 27.5 0C12.3122 0 0 12.3122 0 27.5C0 42.6878 12.3122 55 27.5 55Z" fill="black"/>
</svg>
